<svg width="596" height="596" viewBox="0 0 596 596" fill="none" xmlns="http://www.w3.org/2000/svg">
<circle cx="298" cy="298" r="265.5" stroke="#F5F3FF" stroke-width="65"/>
<path d="M305.753 421.4C283.237 421.4 263.928 416.617 247.828 407.05C231.728 397.367 219.362 383.483 210.728 365.4C202.095 347.2 197.778 325.383 197.778 299.95C197.778 276.267 201.687 255.325 209.503 237.125C217.32 218.925 228.695 204.692 243.628 194.425C258.678 184.042 276.937 178.85 298.403 178.85C309.603 178.85 320.628 180.367 331.478 183.4C342.328 186.317 352.362 190.692 361.578 196.525C370.795 202.242 378.378 209.417 384.328 218.05C381.995 220.733 378.028 224.642 372.428 229.775C366.945 234.792 360.82 239.983 354.053 245.35C347.403 250.717 340.987 255.325 334.803 259.175C332.82 256.258 330.253 253.283 327.103 250.25C323.953 247.217 320.103 244.65 315.553 242.55C311.003 240.45 305.578 239.4 299.278 239.4C292.978 239.4 287.378 241.208 282.478 244.825C277.578 248.325 273.495 253.108 270.228 259.175C266.962 265.125 264.512 272.008 262.878 279.825C261.245 287.642 260.428 295.808 260.428 304.325C260.428 316.108 262.062 326.725 265.328 336.175C268.712 345.508 273.787 352.917 280.553 358.4C287.437 363.767 296.07 366.45 306.453 366.45C312.053 366.45 317.07 365.342 321.503 363.125C326.053 360.908 329.612 357.933 332.178 354.2C334.745 350.35 336.028 346.267 336.028 341.95C336.028 340.433 335.97 339.208 335.853 338.275C335.853 337.225 335.737 336.233 335.503 335.3C333.753 334.833 331.07 334.308 327.453 333.725C323.837 333.142 319.87 332.617 315.553 332.15C311.353 331.567 307.328 331.1 303.478 330.75C299.628 330.4 296.478 330.225 294.028 330.225C293.912 326.608 293.97 322 294.203 316.4C294.437 310.683 294.728 305.025 295.078 299.425C295.428 293.708 295.778 289.158 296.128 285.775C304.178 285.892 314.095 286.592 325.878 287.875C337.662 289.042 349.445 290.558 361.228 292.425C373.128 294.292 383.22 296.392 391.503 298.725C392.67 302.692 393.487 307.417 393.953 312.9C394.42 318.383 394.653 323.342 394.653 327.775C394.653 344.225 391.387 359.625 384.853 373.975C378.32 388.208 368.462 399.7 355.278 408.45C342.212 417.083 325.703 421.4 305.753 421.4Z" fill="#F5F3FF"/>
</svg>
