<svg width="485" height="485" viewBox="0 0 485 485" fill="none" xmlns="http://www.w3.org/2000/svg">
<g clip-path="url(#clip0_64_65)">
<path d="M58.9171 58.9171C98.096 19.7098 149.81 -0.0350241 201.156 -0.00565882C252.515 -0.0350241 304.214 19.7098 343.393 58.9171C382.601 98.096 402.361 149.81 402.301 201.141C402.345 237.003 392.488 272.911 373.365 304.733L470.771 402.138C489.732 421.098 489.732 451.825 470.771 470.785C451.826 489.746 421.084 489.746 402.139 470.785L304.718 373.365C272.911 392.502 236.989 402.345 201.156 402.301C149.811 402.345 98.096 382.601 58.9181 343.392C19.725 304.214 -0.0340483 252.514 0.00952595 201.14C-0.0501518 149.81 19.724 98.096 58.9171 58.9171ZM113.844 288.481C138.044 312.666 169.422 324.596 201.156 324.655C232.889 324.596 264.252 312.667 288.482 288.481C312.667 264.252 324.597 232.888 324.656 201.141C324.597 169.422 312.668 138.044 288.482 113.829C264.253 89.6445 232.889 77.7146 201.156 77.655C169.422 77.7146 138.044 89.6436 113.829 113.829C89.6445 138.044 77.7147 169.422 77.655 201.141C77.7147 232.889 89.6445 264.252 113.844 288.481Z" fill="white"/>
</g>
<defs>
<clipPath id="clip0_64_65">
<rect width="485" height="485" fill="white" transform="matrix(-1 0 0 1 485 0)"/>
</clipPath>
</defs>
</svg>
