<?xml version="1.0" encoding="utf-8"?>
<svg viewBox="4.987 0 119.382 128" xmlns="http://www.w3.org/2000/svg">
  <path style="fill: rgb(76, 29, 149);" d="M 15.116 6.232 L 107.05 6.232 L 116.95 17.37 L 116.597 112.486 L 106.343 123.624 L 19.359 123.271 C 19.359 123.271 11.757 111.602 11.757 111.425 C 11.757 111.248 13.171 8.177 13.171 8.177" transform="matrix(1, 0, 0, 1, 0, 3.552713678800501e-15)"/>
  <path d="M104,0H24C15.164,0,8,7.164,8,16v96c0,8.836,7.164,16,16,16h80c8.836,0,16-7.164,16-16V16  C120,7.164,112.836,0,104,0z M112,112c0,4.414-3.586,8-8,8H24c-4.406,0-8-3.586-8-8V16c0-4.414,3.594-8,8-8h80c4.414,0,8,3.586,8,8  V112z" style="fill: rgb(76, 29, 149);" transform="matrix(1, 0, 0, 1, 0, 3.552713678800501e-15)"/>
  <rect height="8" width="64" x="32" y="24" style="fill: rgb(247, 242, 255);" transform="matrix(1, 0, 0, 1, 0, 3.552713678800501e-15)"/>
  <rect height="8" width="64" x="32" y="40" style="fill: rgb(247, 242, 255);" transform="matrix(1, 0, 0, 1, 0, 3.552713678800501e-15)"/>
  <rect height="8" width="64" x="32" y="56" style="fill: rgb(247, 242, 255);" transform="matrix(1, 0, 0, 1, 0, 3.552713678800501e-15)"/>
  <rect height="8" width="32" x="32" y="72" style="fill: rgb(247, 242, 255);" transform="matrix(1, 0, 0, 1, 0, 3.552713678800501e-15)"/>
</svg>