<svg width="1040" height="704" viewBox="0 0 1040 704" fill="none" xmlns="http://www.w3.org/2000/svg">
<circle cx="298" cy="298" r="298" fill="#490AAB"/>
<circle cx="298" cy="298" r="253" fill="#6D28D9"/>
<circle cx="298" cy="298" r="214" fill="#CBB1F4"/>
<path d="M515.628 309.051C475.243 502.365 433.748 535.784 317.325 520.88C191.891 520.88 108.371 478.391 108.371 351.87C94.0049 217.35 193.821 92.3984 347.04 112.047C500.259 131.695 552.585 175.906 515.628 309.051Z" fill="#6D28D9"/>
<path d="M307.646 413.2C287.046 413.2 269.796 409.05 255.896 400.75C241.996 392.45 231.496 380.55 224.396 365.05C217.296 349.45 213.746 330.8 213.746 309.1C213.746 288.8 216.996 270.85 223.496 255.25C230.096 239.65 239.696 227.45 252.296 218.65C264.996 209.75 280.496 205.3 298.796 205.3C310.296 205.3 320.496 207 329.396 210.4C338.296 213.7 345.846 217.95 352.046 223.15C358.346 228.35 363.196 233.7 366.596 239.2C365.496 240.7 363.646 242.75 361.046 245.35C358.446 247.85 355.596 250.4 352.496 253C349.496 255.6 346.596 257.75 343.796 259.45C339.696 253.05 335.396 248.05 330.896 244.45C326.496 240.75 321.596 238.15 316.196 236.65C310.796 235.15 304.596 234.4 297.596 234.4C291.396 234.4 285.146 235.9 278.846 238.9C272.646 241.9 266.946 246.45 261.746 252.55C256.546 258.65 252.346 266.35 249.146 275.65C246.046 284.95 244.496 295.85 244.496 308.35C244.496 324.35 246.746 338.15 251.246 349.75C255.846 361.25 262.796 370.15 272.096 376.45C281.496 382.65 293.396 385.75 307.796 385.75C318.596 385.75 327.196 383.5 333.596 379C339.996 374.5 344.546 368.6 347.246 361.3C350.046 354 351.446 346.15 351.446 337.75C351.446 335.95 351.396 334.15 351.296 332.35C351.296 330.45 351.196 328.7 350.996 327.1C348.796 326.6 345.046 326 339.746 325.3C334.546 324.5 328.696 323.7 322.196 322.9C315.796 322.1 309.596 321.4 303.596 320.8C297.596 320.1 292.696 319.7 288.896 319.6C288.796 317.7 288.746 315.35 288.746 312.55C288.746 309.65 288.796 306.7 288.896 303.7C288.996 300.7 289.096 298.3 289.196 296.5C296.696 296.8 305.796 297.45 316.496 298.45C327.196 299.45 337.996 300.7 348.896 302.2C359.896 303.7 369.546 305.4 377.846 307.3C378.546 311.4 379.046 315.75 379.346 320.35C379.746 324.85 379.946 329.15 379.946 333.25C379.946 348.55 377.396 362.25 372.296 374.35C367.296 386.45 359.496 395.95 348.896 402.85C338.296 409.75 324.546 413.2 307.646 413.2Z" fill="#CBB1F4"/>
<circle cx="742" cy="298" r="298" fill="#490AAB"/>
<circle cx="742" cy="298" r="253" fill="#6D28D9"/>
<circle cx="742" cy="298" r="214" fill="#CBB1F4"/>
<path d="M959.628 309.051C919.243 502.365 877.748 535.784 761.325 520.88C635.891 520.88 552.371 478.391 552.371 351.87C538.005 217.35 637.821 92.3984 791.04 112.047C944.259 131.695 996.585 175.906 959.628 309.051Z" fill="#6D28D9"/>
<path d="M751.646 413.2C731.046 413.2 713.796 409.05 699.896 400.75C685.996 392.45 675.496 380.55 668.396 365.05C661.296 349.45 657.746 330.8 657.746 309.1C657.746 288.8 660.996 270.85 667.496 255.25C674.096 239.65 683.696 227.45 696.296 218.65C708.996 209.75 724.496 205.3 742.796 205.3C754.296 205.3 764.496 207 773.396 210.4C782.296 213.7 789.846 217.95 796.046 223.15C802.346 228.35 807.196 233.7 810.596 239.2C809.496 240.7 807.646 242.75 805.046 245.35C802.446 247.85 799.596 250.4 796.496 253C793.496 255.6 790.596 257.75 787.796 259.45C783.696 253.05 779.396 248.05 774.896 244.45C770.496 240.75 765.596 238.15 760.196 236.65C754.796 235.15 748.596 234.4 741.596 234.4C735.396 234.4 729.146 235.9 722.846 238.9C716.646 241.9 710.946 246.45 705.746 252.55C700.546 258.65 696.346 266.35 693.146 275.65C690.046 284.95 688.496 295.85 688.496 308.35C688.496 324.35 690.746 338.15 695.246 349.75C699.846 361.25 706.796 370.15 716.096 376.45C725.496 382.65 737.396 385.75 751.796 385.75C762.596 385.75 771.196 383.5 777.596 379C783.996 374.5 788.546 368.6 791.246 361.3C794.046 354 795.446 346.15 795.446 337.75C795.446 335.95 795.396 334.15 795.296 332.35C795.296 330.45 795.196 328.7 794.996 327.1C792.796 326.6 789.046 326 783.746 325.3C778.546 324.5 772.696 323.7 766.196 322.9C759.796 322.1 753.596 321.4 747.596 320.8C741.596 320.1 736.696 319.7 732.896 319.6C732.796 317.7 732.746 315.35 732.746 312.55C732.746 309.65 732.796 306.7 732.896 303.7C732.996 300.7 733.096 298.3 733.196 296.5C740.696 296.8 749.796 297.45 760.496 298.45C771.196 299.45 781.996 300.7 792.896 302.2C803.896 303.7 813.546 305.4 821.846 307.3C822.546 311.4 823.046 315.75 823.346 320.35C823.746 324.85 823.946 329.15 823.946 333.25C823.946 348.55 821.396 362.25 816.296 374.35C811.296 386.45 803.496 395.95 792.896 402.85C782.296 409.75 768.546 413.2 751.646 413.2Z" fill="#CBB1F4"/>
<circle cx="512" cy="406" r="298" fill="#490AAB"/>
<circle cx="512" cy="406" r="253" fill="#6D28D9"/>
<circle cx="512" cy="406" r="214" fill="#CBB1F4"/>
<path d="M729.628 417.051C689.243 610.365 647.748 643.784 531.325 628.88C405.891 628.88 322.371 586.391 322.371 459.87C308.005 325.35 407.821 200.398 561.04 220.047C714.259 239.695 766.585 283.906 729.628 417.051Z" fill="#6D28D9"/>
<path d="M521.646 521.2C501.046 521.2 483.796 517.05 469.896 508.75C455.996 500.45 445.496 488.55 438.396 473.05C431.296 457.45 427.746 438.8 427.746 417.1C427.746 396.8 430.996 378.85 437.496 363.25C444.096 347.65 453.696 335.45 466.296 326.65C478.996 317.75 494.496 313.3 512.796 313.3C524.296 313.3 534.496 315 543.396 318.4C552.296 321.7 559.846 325.95 566.046 331.15C572.346 336.35 577.196 341.7 580.596 347.2C579.496 348.7 577.646 350.75 575.046 353.35C572.446 355.85 569.596 358.4 566.496 361C563.496 363.6 560.596 365.75 557.796 367.45C553.696 361.05 549.396 356.05 544.896 352.45C540.496 348.75 535.596 346.15 530.196 344.65C524.796 343.15 518.596 342.4 511.596 342.4C505.396 342.4 499.146 343.9 492.846 346.9C486.646 349.9 480.946 354.45 475.746 360.55C470.546 366.65 466.346 374.35 463.146 383.65C460.046 392.95 458.496 403.85 458.496 416.35C458.496 432.35 460.746 446.15 465.246 457.75C469.846 469.25 476.796 478.15 486.096 484.45C495.496 490.65 507.396 493.75 521.796 493.75C532.596 493.75 541.196 491.5 547.596 487C553.996 482.5 558.546 476.6 561.246 469.3C564.046 462 565.446 454.15 565.446 445.75C565.446 443.95 565.396 442.15 565.296 440.35C565.296 438.45 565.196 436.7 564.996 435.1C562.796 434.6 559.046 434 553.746 433.3C548.546 432.5 542.696 431.7 536.196 430.9C529.796 430.1 523.596 429.4 517.596 428.8C511.596 428.1 506.696 427.7 502.896 427.6C502.796 425.7 502.746 423.35 502.746 420.55C502.746 417.65 502.796 414.7 502.896 411.7C502.996 408.7 503.096 406.3 503.196 404.5C510.696 404.8 519.796 405.45 530.496 406.45C541.196 407.45 551.996 408.7 562.896 410.2C573.896 411.7 583.546 413.4 591.846 415.3C592.546 419.4 593.046 423.75 593.346 428.35C593.746 432.85 593.946 437.15 593.946 441.25C593.946 456.55 591.396 470.25 586.296 482.35C581.296 494.45 573.496 503.95 562.896 510.85C552.296 517.75 538.546 521.2 521.646 521.2Z" fill="#CBB1F4"/>
</svg>
