<?xml version="1.0" encoding="utf-8"?>
<svg viewBox="0 0 23.381 24" stroke="#000" stroke-width="1" stroke-linecap="round" stroke-linejoin="round" fill="none" color="#000" xmlns="http://www.w3.org/2000/svg">
  <circle cx="11.688" cy="12.021" r="11" style="fill: rgb(76, 29, 149);" transform="matrix(0.9999999999999999, 0, 0, 0.9999999999999999, -1.7763568394002505e-15, -4.440892098500626e-16)"/>
  <path stroke-linecap="round" d="M 4.538 20.271 C 7.105 19.171 8.755 18.254 9.488 17.521 C 10.588 16.421 7.288 16.421 7.288 10.921 C 7.288 7.254 8.755 5.421 11.688 5.421 C 14.621 5.421 16.088 7.254 16.088 10.921 C 16.088 16.421 12.788 16.421 13.888 17.521 C 14.621 18.254 16.271 19.171 18.838 20.271" style="fill: rgb(246, 240, 255); stroke: none; transform-origin: 11.688px 12.846px;"/>
  <path style="stroke: none; fill: rgb(246, 240, 255); transform-origin: 11.6972px 21.543px;" d="M 5.008 20.065 C 5.008 20.065 18.362 20.13 18.386 20.08 C 18.41 20.029 17.25 21.213 16.887 21.778 L 11.757 23.021 L 7.011 21.721"/>
  <circle cx="11.688" cy="12.021" r="11" style="stroke: rgb(76, 29, 149);" transform="matrix(0.9999999999999999, 0, 0, 0.9999999999999999, -1.7763568394002505e-15, -4.440892098500626e-16)"/>
</svg>