<svg width="742" height="742" viewBox="0 0 742 742" fill="none" xmlns="http://www.w3.org/2000/svg">
<path d="M371 61.8333C200.649 61.8333 61.8333 200.649 61.8333 371C61.8333 541.351 200.649 680.167 371 680.167C541.351 680.167 680.167 541.351 680.167 371C680.167 200.649 541.351 61.8333 371 61.8333ZM518.782 299.892L343.484 475.189C339.156 479.517 333.282 481.991 327.098 481.991C320.915 481.991 315.041 479.517 310.712 475.189L223.218 387.695C214.252 378.729 214.252 363.889 223.218 354.923C232.184 345.957 247.024 345.957 255.99 354.923L327.098 426.032L486.01 267.12C494.976 258.154 509.816 258.154 518.782 267.12C527.747 276.086 527.747 290.617 518.782 299.892Z" fill="#1E1B4B"/>
</svg>
