<?xml version="1.0" encoding="utf-8"?>
<svg viewBox="1.342 0.32 20.964 23.297" xmlns="http://www.w3.org/2000/svg">
  <path d="M 12.983 9.636 C 12.983 10.527 12.019 11.084 11.246 10.639 C 10.889 10.431 10.667 10.05 10.667 9.636 L 10.667 1.529 C 10.667 0.637 11.632 0.08 12.404 0.525 C 12.763 0.732 12.983 1.115 12.983 1.529 L 12.983 9.636 Z M 15.752 6.016 C 14.981 5.566 14.986 4.453 15.76 4.009 C 16.104 3.812 16.525 3.805 16.877 3.991 C 23.895 7.879 24.073 17.908 17.197 22.043 C 10.32 26.177 1.546 21.317 1.404 13.294 C 1.335 9.438 3.401 5.859 6.775 3.991 C 7.567 3.582 8.505 4.184 8.463 5.075 C 8.445 5.463 8.232 5.816 7.898 6.016 C 2.439 9.039 2.299 16.838 7.647 20.055 C 12.995 23.272 19.82 19.492 19.932 13.253 C 19.985 10.253 18.378 7.469 15.753 6.016 L 15.752 6.016 Z" fill-rule="nonzero" style="fill: rgb(253, 250, 255);"/>
</svg>