<svg width="610" height="610" viewBox="0 0 610 610" fill="none" xmlns="http://www.w3.org/2000/svg">
<path d="M11.652 542.09C-3.88399 557.626 -3.88399 582.811 11.652 598.348C27.1879 613.884 52.3772 613.884 67.9132 598.348L11.652 542.09ZM333.13 333.13C348.666 317.593 348.666 292.408 333.13 276.872C317.593 261.335 292.408 261.335 276.872 276.872L333.13 333.13ZM276.872 276.872C261.335 292.408 261.335 317.593 276.872 333.13C292.408 348.666 317.593 348.666 333.13 333.13L276.872 276.872ZM598.348 67.9132C613.884 52.3773 613.884 27.1879 598.348 11.652C582.811 -3.88399 557.626 -3.88399 542.09 11.652L598.348 67.9132ZM333.13 276.872C317.593 261.335 292.408 261.335 276.872 276.872C261.335 292.408 261.335 317.593 276.872 333.13L333.13 276.872ZM542.09 598.348C557.626 613.884 582.811 613.884 598.348 598.348C613.884 582.811 613.884 557.626 598.348 542.09L542.09 598.348ZM276.872 333.13C292.408 348.666 317.593 348.666 333.13 333.13C348.666 317.593 348.666 292.408 333.13 276.872L276.872 333.13ZM67.9132 11.652C52.3772 -3.88399 27.1879 -3.88399 11.652 11.652C-3.88399 27.1879 -3.88399 52.3773 11.652 67.9132L67.9132 11.652ZM67.9132 598.348L333.13 333.13L276.872 276.872L11.652 542.09L67.9132 598.348ZM333.13 333.13L598.348 67.9132L542.09 11.652L276.872 276.872L333.13 333.13ZM276.872 333.13L542.09 598.348L598.348 542.09L333.13 276.872L276.872 333.13ZM333.13 276.872L67.9132 11.652L11.652 67.9132L276.872 333.13L333.13 276.872Z" fill="#6D28D9"/>
</svg>
