<svg width="765" height="765" viewBox="0 0 765 765" fill="none" xmlns="http://www.w3.org/2000/svg">
<path d="M385.472 130.472L385.472 130.472C369.51 146.435 369.51 172.315 385.472 188.278L385.472 188.278L538.819 341.625H127.5C104.926 341.625 86.625 359.925 86.625 382.5C86.625 405.075 104.926 423.375 127.5 423.375H538.819L385.472 576.722C369.51 592.684 369.51 618.566 385.472 634.528C401.434 650.49 427.316 650.49 443.278 634.528L666.403 411.403C682.365 395.441 682.365 369.559 666.403 353.597L443.278 130.472C443.278 130.472 443.278 130.472 443.278 130.472C427.316 114.509 401.434 114.509 385.472 130.472Z" fill="#6D28D9" stroke="#6D28D9" stroke-width="18"/>
</svg>
