<svg width="673" height="673" viewBox="0 0 673 673" fill="none" xmlns="http://www.w3.org/2000/svg">
<path fill-rule="evenodd" clip-rule="evenodd" d="M97.1495 575.85C138.215 616.917 204.31 616.917 336.5 616.917C468.688 616.917 534.785 616.917 575.85 575.85C616.917 534.785 616.917 468.688 616.917 336.5C616.917 204.31 616.917 138.215 575.85 97.1495C534.785 56.0833 468.688 56.0833 336.5 56.0833C204.31 56.0833 138.215 56.0833 97.1495 97.1495C56.0833 138.215 56.0833 204.31 56.0833 336.5C56.0833 468.688 56.0833 534.785 97.1495 575.85ZM525.781 448.667C525.781 460.282 516.365 469.698 504.75 469.698H168.25C156.635 469.698 147.219 460.282 147.219 448.667C147.219 437.052 156.635 427.635 168.25 427.635H504.75C516.365 427.635 525.781 437.052 525.781 448.667ZM504.75 357.531C516.365 357.531 525.781 348.115 525.781 336.5C525.781 324.885 516.365 315.469 504.75 315.469H168.25C156.635 315.469 147.219 324.885 147.219 336.5C147.219 348.115 156.635 357.531 168.25 357.531H504.75ZM525.781 224.333C525.781 235.948 516.365 245.365 504.75 245.365H168.25C156.635 245.365 147.219 235.948 147.219 224.333C147.219 212.718 156.635 203.302 168.25 203.302H504.75C516.365 203.302 525.781 212.718 525.781 224.333Z" fill="#6D28D9"/>
</svg>
