<svg width="521" height="521" viewBox="0 0 521 521" fill="none" xmlns="http://www.w3.org/2000/svg">
<path d="M438.842 31H362.105C333.851 31 310.947 53.9042 310.947 82.158V158.895C310.947 187.149 333.851 210.053 362.105 210.053H438.842C467.097 210.053 490 187.149 490 158.895V82.158C490 53.9042 467.097 31 438.842 31Z" stroke="#6D28D9" stroke-width="39" stroke-linecap="round" stroke-linejoin="round"/>
<path d="M158.895 31H82.1579C53.9042 31 31 53.9042 31 82.158V158.895C31 187.149 53.9042 210.053 82.1579 210.053H158.895C187.148 210.053 210.053 187.149 210.053 158.895V82.158C210.053 53.9042 187.148 31 158.895 31Z" stroke="#6D28D9" stroke-width="39" stroke-linecap="round" stroke-linejoin="round"/>
<path d="M438.842 312.368H362.105C333.851 312.368 310.947 335.09 310.947 363.12V439.248C310.947 467.278 333.851 490 362.105 490H438.842C467.097 490 490 467.278 490 439.248V363.12C490 335.09 467.097 312.368 438.842 312.368Z" stroke="#6D28D9" stroke-width="39" stroke-linecap="round" stroke-linejoin="round"/>
<path d="M158.895 312.368H82.1579C53.9042 312.368 31 335.09 31 363.12V439.248C31 467.278 53.9042 490 82.1579 490H158.895C187.148 490 210.053 467.278 210.053 439.248V363.12C210.053 335.09 187.148 312.368 158.895 312.368Z" stroke="#6D28D9" stroke-width="39" stroke-linecap="round" stroke-linejoin="round"/>
</svg>
