<?xml version="1.0" encoding="utf-8"?>
<svg viewBox="0 5.581 46.845 37.8" xmlns="http://www.w3.org/2000/svg">
  <path d="M 42.101 5.899 L 4.957 5.899 C 2.391 5.899 0.336 7.976 0.336 10.541 L 0.313 38.401 C 0.313 40.966 2.391 43.043 4.957 43.043 L 42.101 43.043 C 44.667 43.043 46.744 40.966 46.744 38.401 L 46.744 10.541 C 46.744 7.976 44.667 5.899 42.101 5.899 Z M 42.101 15.185 L 23.529 26.792 L 4.957 15.185 L 4.957 10.541 L 23.529 22.15 L 42.101 10.541 L 42.101 15.185 Z" style="fill: rgb(30, 27, 75);" transform="matrix(1, 0, 0, 1, 7.105427357601002e-15, 1.7763568394002505e-15)"/>
  <path d="M -4.33 -3.387 L 51.387 -3.387 L 51.387 52.33 L -4.33 52.33 L -4.33 -3.387 Z" fill="none" style="" transform="matrix(1, 0, 0, 1, 7.105427357601002e-15, 1.7763568394002505e-15)"/>
</svg>