<svg width="1040" height="704" viewBox="0 0 1040 704" fill="none" xmlns="http://www.w3.org/2000/svg">
<circle cx="298" cy="298" r="298" fill="#3EB3EF"/>
<circle cx="298" cy="298" r="253" fill="#74CBF7"/>
<circle cx="298" cy="298" r="214" fill="#D7F1FF"/>
<path d="M515.628 309.051C475.243 502.365 433.748 535.784 317.325 520.88C191.891 520.88 108.371 478.391 108.371 351.87C94.0049 217.35 193.821 92.3984 347.04 112.047C500.259 131.695 552.585 175.906 515.628 309.051Z" fill="#74CBF7"/>
<path d="M258.241 408.25C256.341 408.25 253.941 408.2 251.041 408.1C248.241 408 245.291 407.85 242.191 407.65C239.091 407.55 236.141 407.4 233.341 407.2C230.541 407.1 228.191 406.95 226.291 406.75C227.291 401.55 228.691 394.25 230.491 384.85C232.391 375.45 234.641 364.8 237.241 352.9C239.841 340.9 242.591 328.35 245.491 315.25C248.391 302.15 251.341 289.15 254.341 276.25C257.441 263.25 260.391 251.05 263.191 239.65C265.991 228.25 268.491 218.45 270.691 210.25C276.791 209.35 284.191 208.45 292.891 207.55C301.691 206.65 310.641 206.2 319.741 206.2C323.641 206.2 327.691 206.3 331.891 206.5C336.091 206.7 340.091 207.05 343.891 207.55C345.791 216.35 347.691 226.85 349.591 239.05C351.591 251.25 353.491 265.45 355.291 281.65C357.191 297.85 359.041 316.25 360.841 336.85C362.741 357.35 364.591 380.4 366.391 406C364.091 406.4 361.041 406.75 357.241 407.05C353.441 407.45 349.491 407.75 345.391 407.95C341.391 408.15 337.691 408.25 334.291 408.25C334.091 405.35 333.891 401.55 333.691 396.85C333.491 392.15 333.241 386.95 332.941 381.25C332.641 375.45 332.341 369.7 332.041 364C331.741 358.2 331.441 352.85 331.141 347.95C330.841 343.05 330.591 339.05 330.391 335.95C327.191 336.05 323.291 336.2 318.691 336.4C314.091 336.6 309.241 336.9 304.141 337.3C299.141 337.6 294.291 337.95 289.591 338.35C284.991 338.75 280.991 339.15 277.591 339.55C274.191 339.95 271.941 340.25 270.841 340.45C269.041 348.95 267.291 357.55 265.591 366.25C263.891 374.85 262.391 382.85 261.091 390.25C259.791 397.55 258.841 403.55 258.241 408.25ZM274.891 314.65C278.591 313.85 283.691 313.1 290.191 312.4C296.791 311.7 303.641 311.1 310.741 310.6C317.941 310.1 324.191 309.75 329.491 309.55C329.291 306.45 328.941 301.5 328.441 294.7C327.941 287.9 327.341 280.45 326.641 272.35C325.941 264.25 325.241 256.6 324.541 249.4C323.941 242.1 323.291 236.45 322.591 232.45C320.291 232.45 316.991 232.6 312.691 232.9C308.491 233.1 304.391 233.4 300.391 233.8C296.491 234.1 293.741 234.35 292.141 234.55C291.541 237.15 290.641 241.1 289.441 246.4C288.241 251.6 286.841 257.85 285.241 265.15C283.641 272.35 281.941 280.2 280.141 288.7C278.441 297.1 276.691 305.75 274.891 314.65Z" fill="#2A9AD2"/>
<circle cx="742" cy="298" r="298" fill="#3EB3EF"/>
<circle cx="742" cy="298" r="253" fill="#74CBF7"/>
<circle cx="742" cy="298" r="214" fill="#D7F1FF"/>
<path d="M959.628 309.051C919.243 502.365 877.748 535.784 761.325 520.88C635.891 520.88 552.371 478.391 552.371 351.87C538.005 217.35 637.821 92.3984 791.04 112.047C944.259 131.695 996.585 175.906 959.628 309.051Z" fill="#74CBF7"/>
<path d="M702.241 408.25C700.341 408.25 697.941 408.2 695.041 408.1C692.241 408 689.291 407.85 686.191 407.65C683.091 407.55 680.141 407.4 677.341 407.2C674.541 407.1 672.191 406.95 670.291 406.75C671.291 401.55 672.691 394.25 674.491 384.85C676.391 375.45 678.641 364.8 681.241 352.9C683.841 340.9 686.591 328.35 689.491 315.25C692.391 302.15 695.341 289.15 698.341 276.25C701.441 263.25 704.391 251.05 707.191 239.65C709.991 228.25 712.491 218.45 714.691 210.25C720.791 209.35 728.191 208.45 736.891 207.55C745.691 206.65 754.641 206.2 763.741 206.2C767.641 206.2 771.691 206.3 775.891 206.5C780.091 206.7 784.091 207.05 787.891 207.55C789.791 216.35 791.691 226.85 793.591 239.05C795.591 251.25 797.491 265.45 799.291 281.65C801.191 297.85 803.041 316.25 804.841 336.85C806.741 357.35 808.591 380.4 810.391 406C808.091 406.4 805.041 406.75 801.241 407.05C797.441 407.45 793.491 407.75 789.391 407.95C785.391 408.15 781.691 408.25 778.291 408.25C778.091 405.35 777.891 401.55 777.691 396.85C777.491 392.15 777.241 386.95 776.941 381.25C776.641 375.45 776.341 369.7 776.041 364C775.741 358.2 775.441 352.85 775.141 347.95C774.841 343.05 774.591 339.05 774.391 335.95C771.191 336.05 767.291 336.2 762.691 336.4C758.091 336.6 753.241 336.9 748.141 337.3C743.141 337.6 738.291 337.95 733.591 338.35C728.991 338.75 724.991 339.15 721.591 339.55C718.191 339.95 715.941 340.25 714.841 340.45C713.041 348.95 711.291 357.55 709.591 366.25C707.891 374.85 706.391 382.85 705.091 390.25C703.791 397.55 702.841 403.55 702.241 408.25ZM718.891 314.65C722.591 313.85 727.691 313.1 734.191 312.4C740.791 311.7 747.641 311.1 754.741 310.6C761.941 310.1 768.191 309.75 773.491 309.55C773.291 306.45 772.941 301.5 772.441 294.7C771.941 287.9 771.341 280.45 770.641 272.35C769.941 264.25 769.241 256.6 768.541 249.4C767.941 242.1 767.291 236.45 766.591 232.45C764.291 232.45 760.991 232.6 756.691 232.9C752.491 233.1 748.391 233.4 744.391 233.8C740.491 234.1 737.741 234.35 736.141 234.55C735.541 237.15 734.641 241.1 733.441 246.4C732.241 251.6 730.841 257.85 729.241 265.15C727.641 272.35 725.941 280.2 724.141 288.7C722.441 297.1 720.691 305.75 718.891 314.65Z" fill="#2A9AD2"/>
<circle cx="512" cy="406" r="298" fill="#3EB3EF"/>
<circle cx="512" cy="406" r="253" fill="#74CBF7"/>
<circle cx="512" cy="406" r="214" fill="#D7F1FF"/>
<path d="M729.628 417.051C689.243 610.365 647.748 643.784 531.325 628.88C405.891 628.88 322.371 586.391 322.371 459.87C308.005 325.35 407.821 200.398 561.04 220.047C714.259 239.695 766.585 283.906 729.628 417.051Z" fill="#74CBF7"/>
<path d="M472.241 516.25C470.341 516.25 467.941 516.2 465.041 516.1C462.241 516 459.291 515.85 456.191 515.65C453.091 515.55 450.141 515.4 447.341 515.2C444.541 515.1 442.191 514.95 440.291 514.75C441.291 509.55 442.691 502.25 444.491 492.85C446.391 483.45 448.641 472.8 451.241 460.9C453.841 448.9 456.591 436.35 459.491 423.25C462.391 410.15 465.341 397.15 468.341 384.25C471.441 371.25 474.391 359.05 477.191 347.65C479.991 336.25 482.491 326.45 484.691 318.25C490.791 317.35 498.191 316.45 506.891 315.55C515.691 314.65 524.641 314.2 533.741 314.2C537.641 314.2 541.691 314.3 545.891 314.5C550.091 314.7 554.091 315.05 557.891 315.55C559.791 324.35 561.691 334.85 563.591 347.05C565.591 359.25 567.491 373.45 569.291 389.65C571.191 405.85 573.041 424.25 574.841 444.85C576.741 465.35 578.591 488.4 580.391 514C578.091 514.4 575.041 514.75 571.241 515.05C567.441 515.45 563.491 515.75 559.391 515.95C555.391 516.15 551.691 516.25 548.291 516.25C548.091 513.35 547.891 509.55 547.691 504.85C547.491 500.15 547.241 494.95 546.941 489.25C546.641 483.45 546.341 477.7 546.041 472C545.741 466.2 545.441 460.85 545.141 455.95C544.841 451.05 544.591 447.05 544.391 443.95C541.191 444.05 537.291 444.2 532.691 444.4C528.091 444.6 523.241 444.9 518.141 445.3C513.141 445.6 508.291 445.95 503.591 446.35C498.991 446.75 494.991 447.15 491.591 447.55C488.191 447.95 485.941 448.25 484.841 448.45C483.041 456.95 481.291 465.55 479.591 474.25C477.891 482.85 476.391 490.85 475.091 498.25C473.791 505.55 472.841 511.55 472.241 516.25ZM488.891 422.65C492.591 421.85 497.691 421.1 504.191 420.4C510.791 419.7 517.641 419.1 524.741 418.6C531.941 418.1 538.191 417.75 543.491 417.55C543.291 414.45 542.941 409.5 542.441 402.7C541.941 395.9 541.341 388.45 540.641 380.35C539.941 372.25 539.241 364.6 538.541 357.4C537.941 350.1 537.291 344.45 536.591 340.45C534.291 340.45 530.991 340.6 526.691 340.9C522.491 341.1 518.391 341.4 514.391 341.8C510.491 342.1 507.741 342.35 506.141 342.55C505.541 345.15 504.641 349.1 503.441 354.4C502.241 359.6 500.841 365.85 499.241 373.15C497.641 380.35 495.941 388.2 494.141 396.7C492.441 405.1 490.691 413.75 488.891 422.65Z" fill="#2A9AD2"/>
</svg>
