<svg width="474" height="395" viewBox="0 0 474 395" fill="none" xmlns="http://www.w3.org/2000/svg">
<path d="M428.116 247.239C418.439 284.34 388.953 313.23 347.815 329.478C306.684 345.724 254.449 349.036 200.976 335.088C147.503 321.141 103.541 292.737 75.5853 258.47C47.6252 224.198 36.0071 184.587 45.6844 147.486C46.8827 142.892 48.8846 140.395 51.1693 138.865C53.6323 137.216 57.2637 136.136 62.5437 135.985C73.3837 135.673 88.016 139.287 105.425 144.517C109.936 145.872 114.615 147.33 119.4 148.82C132.515 152.905 146.425 157.238 159.864 160.397C178.182 164.702 196.998 167.197 213.439 163.606C226.723 160.704 233.962 149.034 238.48 137.59C242.517 127.364 245.282 114.943 247.846 103.425C248.217 101.761 248.583 100.115 248.949 98.4976C251.983 85.0661 254.919 73.7584 259.224 66.4185C261.299 62.88 263.317 60.9467 265.172 59.9959C266.836 59.1431 269.142 58.6762 272.825 59.6367C326.297 73.5845 370.26 101.988 398.215 136.255C426.175 170.527 437.793 210.138 428.116 247.239Z" fill="#F7BE69" stroke="#191919" stroke-width="16"/>
<path d="M377.849 172.688C374.282 180.775 365.692 185.982 354.272 187.609C342.877 189.232 328.904 187.234 315.097 181.142C301.291 175.05 290.395 166.076 283.913 156.565C277.416 147.033 275.472 137.179 279.04 129.092C282.608 121.006 291.197 115.799 302.617 114.172C314.012 112.549 327.985 114.547 341.792 120.638C355.599 126.73 366.494 135.704 372.976 145.215C379.473 154.747 381.417 164.602 377.849 172.688Z" fill="#FE5E53" stroke="#D25148" stroke-width="3"/>
<path d="M194.135 248.826C190.567 256.912 181.978 262.119 170.557 263.746C159.163 265.369 145.189 263.371 131.383 257.28C117.576 251.188 106.681 242.214 100.198 232.703C93.7016 223.171 91.7574 213.316 95.3253 205.23C98.8931 197.143 107.483 191.936 118.903 190.309C130.298 188.686 144.271 190.684 158.078 196.776C171.884 202.868 182.78 211.842 189.262 221.353C195.759 230.885 197.703 240.739 194.135 248.826Z" fill="#33008E" stroke="#1C004D" stroke-width="3"/>
<path d="M313.135 235.826C309.567 243.912 300.978 249.119 289.557 250.746C278.163 252.369 264.189 250.371 250.383 244.28C236.576 238.188 225.681 229.214 219.198 219.703C212.702 210.171 210.757 200.316 214.325 192.23C217.893 184.143 226.483 178.936 237.903 177.309C249.298 175.686 263.271 177.684 277.078 183.776C290.884 189.868 301.78 198.842 308.262 208.353C314.759 217.885 316.703 227.739 313.135 235.826Z" fill="#00CAB9" stroke="#00B2A3" stroke-width="3"/>
<path d="M292.485 307.611C291.817 314.416 286.757 320.37 278.64 324.383C270.546 328.385 259.622 330.328 247.801 329.168C235.98 328.008 225.643 323.978 218.481 318.478C211.299 312.964 207.493 306.14 208.161 299.335C208.829 292.53 213.889 286.576 222.006 282.563C230.1 278.561 241.024 276.617 252.845 277.777C264.666 278.938 275.004 282.968 282.165 288.467C289.347 293.982 293.153 300.806 292.485 307.611Z" fill="#E3E1E6" stroke="#C4C3C5" stroke-width="3"/>
<path d="M367.486 287.453C360.971 285.378 356.206 279.186 353.976 270.41C351.753 261.658 352.135 250.569 355.738 239.252C359.342 227.934 365.443 218.666 372.317 212.812C379.21 206.94 386.679 204.644 393.194 206.718C399.709 208.793 404.475 214.985 406.704 223.761C408.927 232.513 408.546 243.602 404.942 254.919C401.338 266.237 395.237 275.505 388.363 281.359C381.47 287.231 374.001 289.527 367.486 287.453Z" fill="#FFB4C2" stroke="#E69CAA" stroke-width="3"/>
</svg>
