<svg width="100" height="100" viewBox="0 0 100 100" fill="none" xmlns="http://www.w3.org/2000/svg">
<rect x="1.5" y="1.5" width="97" height="97" rx="18.5" fill="white"/>
<path d="M9.5448 47V46.59L10.5698 46.221C11.1165 46.0023 11.5401 45.7427 11.8408 45.442C12.1415 45.114 12.3875 44.663 12.5788 44.089L21.0248 19.858H24.5098L32.8328 44.253C33.0515 44.8543 33.2975 45.319 33.5708 45.647C33.8441 45.9477 34.2678 46.2073 34.8418 46.426L35.3338 46.59V47H24.9198V46.59L25.5348 46.385C26.1088 46.1663 26.4505 45.8657 26.5598 45.483C26.6965 45.073 26.6828 44.5947 26.5188 44.048L24.5918 38.144H15.4898L13.5218 43.925C13.3305 44.5263 13.2621 45.0047 13.3168 45.36C13.3988 45.7153 13.7268 46.0023 14.3008 46.221L15.2028 46.59V47H9.5448ZM15.7768 37.324H24.3458L20.2048 24.573L15.7768 37.324ZM42.3685 47.615C40.7832 47.615 39.4438 47.164 38.3505 46.262C37.2845 45.36 36.7515 44.0617 36.7515 42.367C36.7515 41.0823 37.4075 39.907 38.7195 38.841C40.0315 37.7477 42.0952 36.9277 44.9105 36.381C45.3478 36.299 45.8398 36.217 46.3865 36.135C46.9332 36.0257 47.5072 35.9163 48.1085 35.807V32.568C48.1085 30.7093 47.8762 29.411 47.4115 28.673C46.9742 27.9077 46.2772 27.525 45.3205 27.525C44.6645 27.525 44.1452 27.7437 43.7625 28.181C43.3798 28.591 43.1338 29.3153 43.0245 30.354L42.9425 30.805C42.8878 31.9803 42.6008 32.8413 42.0815 33.388C41.5622 33.9347 40.9198 34.208 40.1545 34.208C39.4438 34.208 38.8562 33.9893 38.3915 33.552C37.9268 33.1147 37.6945 32.527 37.6945 31.789C37.6945 30.6683 38.0772 29.7253 38.8425 28.96C39.6352 28.1947 40.6738 27.6207 41.9585 27.238C43.2432 26.8553 44.6372 26.664 46.1405 26.664C48.5732 26.664 50.4455 27.2653 51.7575 28.468C53.0968 29.6433 53.7665 31.5703 53.7665 34.249V43.31C53.7665 44.54 54.3405 45.155 55.4885 45.155H56.3905L56.7595 45.483C56.2402 46.139 55.6662 46.6447 55.0375 47C54.4362 47.3553 53.5752 47.533 52.4545 47.533C51.2518 47.533 50.2952 47.2597 49.5845 46.713C48.9012 46.139 48.4502 45.3873 48.2315 44.458C47.4115 45.3327 46.5642 46.0843 45.6895 46.713C44.8422 47.3143 43.7352 47.615 42.3685 47.615ZM44.8695 45.114C45.4162 45.114 45.9218 44.991 46.3865 44.745C46.8785 44.4717 47.4525 44.0617 48.1085 43.515V36.627C47.8352 36.6817 47.5618 36.7363 47.2885 36.791C47.0152 36.8457 46.7008 36.9003 46.3455 36.955C45.0882 37.283 44.0768 37.8433 43.3115 38.636C42.5735 39.4013 42.2045 40.44 42.2045 41.752C42.2045 42.8727 42.4642 43.72 42.9835 44.294C43.5028 44.8407 44.1315 45.114 44.8695 45.114Z" fill="black"/>
<path d="M43.9263 84L54.5043 55.3H58.1533L68.6903 84H65.0413L62.4173 76.62H50.1993L47.5343 84H43.9263ZM51.2243 73.832H61.3923L56.3083 59.646L51.2243 73.832ZM78.7161 84.492C77.0214 84.492 75.6137 84.205 74.4931 83.631C73.3724 83.057 72.5387 82.2917 71.9921 81.335C71.4454 80.3783 71.1721 79.3397 71.1721 78.219C71.1721 76.1417 71.9647 74.5427 73.5501 73.422C75.1354 72.3013 77.2947 71.741 80.0281 71.741H85.5221V71.495C85.5221 69.7183 85.0574 68.379 84.1281 67.477C83.1987 66.5477 81.9551 66.083 80.3971 66.083C79.0577 66.083 77.8961 66.4247 76.9121 67.108C75.9554 67.764 75.3541 68.7343 75.1081 70.019H71.5821C71.7187 68.543 72.2107 67.2993 73.0581 66.288C73.9327 65.2767 75.0124 64.5113 76.2971 63.992C77.5817 63.4453 78.9484 63.172 80.3971 63.172C83.2397 63.172 85.3717 63.9373 86.7931 65.468C88.2417 66.9713 88.9661 68.9803 88.9661 71.495V84H85.8911L85.6861 80.351C85.1121 81.499 84.2647 82.483 83.1441 83.303C82.0507 84.0957 80.5747 84.492 78.7161 84.492ZM79.2491 81.581C80.5611 81.581 81.6817 81.2393 82.6111 80.556C83.5677 79.8727 84.2921 78.9843 84.7841 77.891C85.2761 76.7977 85.5221 75.6497 85.5221 74.447V74.406H80.3151C78.2924 74.406 76.8574 74.7613 76.0101 75.472C75.1901 76.1553 74.7801 77.0163 74.7801 78.055C74.7801 79.121 75.1627 79.982 75.9281 80.638C76.7207 81.2667 77.8277 81.581 79.2491 81.581Z" fill="black"/>
<rect x="1.5" y="1.5" width="97" height="97" rx="18.5" stroke="black" stroke-width="3"/>
</svg>
