<svg width="88" height="88" viewBox="0 0 88 88" fill="none" xmlns="http://www.w3.org/2000/svg">
<path d="M25.6667 25.6667C25.6667 23.6416 27.3083 22 29.3333 22H58.6667C60.6918 22 62.3333 23.6416 62.3333 25.6667C62.3333 27.6917 60.6918 29.3333 58.6667 29.3333H29.3333C27.3083 29.3333 25.6667 27.6917 25.6667 25.6667Z" fill="#0F0F0F"/>
<path d="M29.3333 33C27.3083 33 25.6667 34.6416 25.6667 36.6667C25.6667 38.6918 27.3083 40.3333 29.3333 40.3333H47.6667C49.6918 40.3333 51.3333 38.6918 51.3333 36.6667C51.3333 34.6416 49.6918 33 47.6667 33H29.3333Z" fill="#0F0F0F"/>
<path fill-rule="evenodd" clip-rule="evenodd" d="M25.6667 84.3333H69.6667C75.742 84.3333 80.6667 79.4086 80.6667 73.3333V14.6667C80.6667 8.59154 75.742 3.66666 69.6667 3.66666H25.6667C15.5415 3.66666 7.33333 11.8748 7.33333 22V66C7.33333 75.9202 15.6751 84.3333 25.6667 84.3333ZM14.6667 22C14.6667 15.9249 19.5915 11 25.6667 11H69.6667C71.6918 11 73.3333 12.6416 73.3333 14.6667V51.9592C72.1864 51.5541 70.9522 51.3333 69.6667 51.3333H25.6667C21.5394 51.3333 17.7307 52.697 14.6667 54.9985V22ZM73.3333 62.3333C73.3333 60.3082 71.6918 58.6667 69.6667 58.6667H25.6667C20.2162 58.6667 14.8188 62.5284 14.8188 67.8333C14.8188 73.0261 20.2162 77 25.6667 77H69.6667C71.6918 77 73.3333 75.3584 73.3333 73.3333V62.3333Z" fill="#0F0F0F"/>
</svg>
