<?xml version="1.0" encoding="UTF-8" standalone="no"?><!-- Generator: Gravit.io --><svg xmlns="http://www.w3.org/2000/svg" xmlns:xlink="http://www.w3.org/1999/xlink" style="isolation:isolate" viewBox="0 0 512 512" width="512pt" height="512pt"><defs><clipPath id="_clipPath_2poosmqJrhkDMsa2sadryscYb7RdY3BN"><rect width="512" height="512"/></clipPath></defs><g clip-path="url(#_clipPath_2poosmqJrhkDMsa2sadryscYb7RdY3BN)"><path d=" M 256 0 L 256 0 L 256 0 L 17.664 84.992 L 54.016 400.128 L 256 512 L 256 512 L 256 512 L 457.984 400.128 L 494.336 84.992 L 256 0 Z " fill="rgb(221,0,49)"/><path d=" M 256 0 L 256 56.832 L 256 56.576 L 256 315.904 L 256 315.904 L 256 512 L 256 512 L 457.984 400.128 L 494.336 84.992 L 256 0 L 256 0 Z " fill="rgb(195,0,47)"/><path d=" M 256 56.576 L 107.008 390.656 L 107.008 390.656 L 162.56 390.656 L 162.56 390.656 L 192.512 315.904 L 318.976 315.904 L 348.928 390.656 L 348.928 390.656 L 404.48 390.656 L 404.48 390.656 L 256 56.576 L 256 56.576 L 256 56.576 L 256 56.576 L 256 56.576 Z  M 299.52 269.824 L 212.48 269.824 L 256 165.12 L 299.52 269.824 Z " fill="rgb(255,255,255)"/></g></svg>