<svg width="632" height="632" viewBox="0 0 632 632" fill="none" xmlns="http://www.w3.org/2000/svg">
<circle cx="316" cy="316" r="316" fill="#FCD300"/>
<g clip-path="url(#clip0_51_94)">
<g filter="url(#filter0_d_51_94)">
<rect x="151" y="224" width="249" height="251" rx="5" fill="#F6F6F6"/>
<rect x="151.5" y="224.5" width="248" height="250" rx="4.5" stroke="#E1E1E1" stroke-opacity="0.7"/>
</g>
<rect x="163" y="236" width="225" height="173" fill="#FE5E53"/>
<path d="M164.321 436V425.091H168.007C168.859 425.091 169.559 425.237 170.106 425.528C170.653 425.815 171.058 426.211 171.32 426.716C171.583 427.22 171.714 427.793 171.714 428.436C171.714 429.079 171.583 429.649 171.32 430.146C171.058 430.643 170.654 431.034 170.111 431.318C169.568 431.598 168.874 431.739 168.028 431.739H165.045V430.545H167.986C168.568 430.545 169.037 430.46 169.392 430.29C169.751 430.119 170.01 429.878 170.17 429.565C170.333 429.249 170.415 428.873 170.415 428.436C170.415 427.999 170.333 427.618 170.17 427.291C170.006 426.964 169.745 426.712 169.387 426.534C169.028 426.353 168.554 426.263 167.964 426.263H165.642V436H164.321ZM169.456 431.099L172.141 436H170.607L167.964 431.099H169.456ZM176.981 436.17C176.243 436.17 175.595 435.995 175.037 435.643C174.483 435.292 174.05 434.8 173.737 434.168C173.428 433.536 173.274 432.797 173.274 431.952C173.274 431.099 173.428 430.355 173.737 429.72C174.05 429.084 174.483 428.591 175.037 428.239C175.595 427.887 176.243 427.712 176.981 427.712C177.72 427.712 178.366 427.887 178.92 428.239C179.478 428.591 179.911 429.084 180.22 429.72C180.532 430.355 180.689 431.099 180.689 431.952C180.689 432.797 180.532 433.536 180.22 434.168C179.911 434.8 179.478 435.292 178.92 435.643C178.366 435.995 177.72 436.17 176.981 436.17ZM176.981 435.041C177.542 435.041 178.004 434.897 178.366 434.61C178.728 434.322 178.997 433.944 179.171 433.475C179.345 433.006 179.432 432.499 179.432 431.952C179.432 431.405 179.345 430.895 179.171 430.423C178.997 429.951 178.728 429.569 178.366 429.278C178.004 428.987 177.542 428.841 176.981 428.841C176.42 428.841 175.959 428.987 175.596 429.278C175.234 429.569 174.966 429.951 174.792 430.423C174.618 430.895 174.531 431.405 174.531 431.952C174.531 432.499 174.618 433.006 174.792 433.475C174.966 433.944 175.234 434.322 175.596 434.61C175.959 434.897 176.42 435.041 176.981 435.041ZM188.403 429.651L187.274 429.97C187.203 429.782 187.098 429.599 186.96 429.422C186.825 429.24 186.64 429.091 186.406 428.974C186.171 428.857 185.871 428.798 185.505 428.798C185.005 428.798 184.587 428.914 184.254 429.145C183.923 429.372 183.758 429.661 183.758 430.013C183.758 430.325 183.872 430.572 184.099 430.753C184.326 430.934 184.681 431.085 185.164 431.206L186.379 431.504C187.11 431.682 187.656 431.953 188.014 432.319C188.373 432.681 188.552 433.148 188.552 433.72C188.552 434.189 188.417 434.608 188.147 434.977C187.881 435.347 187.508 435.638 187.029 435.851C186.549 436.064 185.992 436.17 185.356 436.17C184.522 436.17 183.831 435.989 183.284 435.627C182.737 435.265 182.391 434.736 182.245 434.04L183.439 433.741C183.552 434.182 183.767 434.512 184.083 434.732C184.403 434.952 184.82 435.062 185.335 435.062C185.921 435.062 186.386 434.938 186.73 434.69C187.078 434.437 187.252 434.136 187.252 433.784C187.252 433.5 187.153 433.262 186.954 433.07C186.755 432.875 186.45 432.729 186.038 432.634L184.674 432.314C183.925 432.136 183.375 431.861 183.023 431.488C182.675 431.112 182.501 430.641 182.501 430.077C182.501 429.615 182.631 429.207 182.89 428.852C183.153 428.496 183.51 428.218 183.961 428.015C184.415 427.813 184.93 427.712 185.505 427.712C186.315 427.712 186.951 427.889 187.412 428.244C187.877 428.599 188.208 429.068 188.403 429.651ZM193.875 436.17C193.087 436.17 192.407 435.996 191.835 435.648C191.267 435.297 190.828 434.807 190.519 434.178C190.214 433.546 190.061 432.811 190.061 431.973C190.061 431.135 190.214 430.396 190.519 429.757C190.828 429.114 191.258 428.614 191.808 428.255C192.362 427.893 193.008 427.712 193.747 427.712C194.173 427.712 194.594 427.783 195.009 427.925C195.425 428.067 195.803 428.298 196.144 428.617C196.485 428.933 196.757 429.352 196.959 429.874C197.161 430.396 197.263 431.039 197.263 431.803V432.335H190.956V431.249H195.984C195.984 430.787 195.892 430.375 195.707 430.013C195.526 429.651 195.267 429.365 194.93 429.155C194.596 428.946 194.202 428.841 193.747 428.841C193.246 428.841 192.813 428.965 192.447 429.214C192.085 429.459 191.806 429.778 191.611 430.173C191.416 430.567 191.318 430.989 191.318 431.44V432.165C191.318 432.783 191.425 433.306 191.638 433.736C191.854 434.162 192.154 434.487 192.538 434.711C192.921 434.931 193.367 435.041 193.875 435.041C194.205 435.041 194.503 434.995 194.77 434.903C195.04 434.807 195.272 434.665 195.468 434.477C195.663 434.285 195.814 434.047 195.92 433.763L197.135 434.104C197.007 434.516 196.792 434.878 196.49 435.19C196.188 435.499 195.816 435.741 195.372 435.915C194.928 436.085 194.429 436.17 193.875 436.17ZM168.039 459L169.829 448.091H171.533L169.744 459H168.039ZM163.154 456.294L163.437 454.589H171.96L171.677 456.294H163.154ZM164.204 459L165.994 448.091H167.698L165.908 459H164.204ZM163.778 452.501L164.065 450.797H172.588L172.3 452.501H163.778ZM173.689 459V448.091H180.912V449.993H175.996V452.592H180.433V454.494H175.996V459H173.689ZM182.464 459V448.091H189.815V449.993H184.77V452.592H189.436V454.494H184.77V457.098H189.836V459H182.464ZM195.569 459.149C194.816 459.149 194.145 459.011 193.555 458.734C192.969 458.457 192.504 458.075 192.16 457.588C191.815 457.102 191.636 456.544 191.622 455.916H193.859C193.884 456.338 194.061 456.681 194.392 456.944C194.722 457.207 195.114 457.338 195.569 457.338C195.931 457.338 196.251 457.258 196.528 457.098C196.808 456.935 197.027 456.71 197.183 456.422C197.343 456.131 197.422 455.797 197.422 455.42C197.422 455.037 197.341 454.7 197.177 454.408C197.018 454.117 196.796 453.89 196.512 453.727C196.228 453.563 195.903 453.48 195.537 453.476C195.217 453.476 194.907 453.542 194.605 453.673C194.306 453.805 194.074 453.984 193.907 454.211L191.856 453.844L192.373 448.091H199.042V449.977H194.274L193.992 452.709H194.056C194.248 452.439 194.537 452.216 194.924 452.038C195.311 451.86 195.745 451.772 196.224 451.772C196.881 451.772 197.467 451.926 197.982 452.235C198.497 452.544 198.903 452.968 199.202 453.508C199.5 454.044 199.647 454.662 199.644 455.362C199.647 456.097 199.477 456.75 199.132 457.322C198.791 457.89 198.314 458.338 197.699 458.664C197.089 458.988 196.378 459.149 195.569 459.149ZM201.316 459V448.091H208.667V449.993H203.623V452.592H208.289V454.494H203.623V457.098H208.688V459H201.316ZM214.421 459.149C213.669 459.149 212.997 459.011 212.408 458.734C211.822 458.457 211.357 458.075 211.012 457.588C210.668 457.102 210.488 456.544 210.474 455.916H212.711C212.736 456.338 212.914 456.681 213.244 456.944C213.574 457.207 213.967 457.338 214.421 457.338C214.784 457.338 215.103 457.258 215.38 457.098C215.661 456.935 215.879 456.71 216.035 456.422C216.195 456.131 216.275 455.797 216.275 455.42C216.275 455.037 216.193 454.7 216.03 454.408C215.87 454.117 215.648 453.89 215.364 453.727C215.08 453.563 214.755 453.48 214.389 453.476C214.07 453.476 213.759 453.542 213.457 453.673C213.159 453.805 212.926 453.984 212.759 454.211L210.709 453.844L211.225 448.091H217.894V449.977H213.127L212.845 452.709H212.909C213.1 452.439 213.39 452.216 213.777 452.038C214.164 451.86 214.597 451.772 215.077 451.772C215.733 451.772 216.319 451.926 216.834 452.235C217.349 452.544 217.756 452.968 218.054 453.508C218.352 454.044 218.5 454.662 218.496 455.362C218.5 456.097 218.329 456.75 217.985 457.322C217.644 457.89 217.166 458.338 216.552 458.664C215.941 458.988 215.231 459.149 214.421 459.149ZM224.137 459.149C223.342 459.149 222.633 459.012 222.012 458.739C221.394 458.462 220.906 458.082 220.547 457.599C220.192 457.113 220.009 456.551 219.998 455.916H222.321C222.335 456.182 222.422 456.417 222.582 456.619C222.745 456.818 222.962 456.972 223.232 457.082C223.502 457.192 223.805 457.248 224.143 457.248C224.494 457.248 224.805 457.185 225.075 457.061C225.345 456.937 225.556 456.765 225.709 456.544C225.861 456.324 225.938 456.07 225.938 455.783C225.938 455.491 225.856 455.234 225.693 455.01C225.533 454.783 225.302 454.605 225 454.478C224.702 454.35 224.347 454.286 223.935 454.286H222.917V452.592H223.935C224.283 452.592 224.59 452.532 224.856 452.411C225.126 452.29 225.336 452.123 225.485 451.91C225.634 451.694 225.709 451.441 225.709 451.154C225.709 450.88 225.643 450.641 225.512 450.435C225.384 450.225 225.203 450.062 224.968 449.945C224.737 449.827 224.468 449.769 224.159 449.769C223.846 449.769 223.56 449.826 223.301 449.939C223.042 450.049 222.834 450.207 222.678 450.413C222.521 450.619 222.438 450.861 222.427 451.138H220.217C220.227 450.509 220.407 449.955 220.755 449.476C221.103 448.996 221.572 448.622 222.161 448.352C222.754 448.078 223.423 447.942 224.169 447.942C224.922 447.942 225.581 448.078 226.145 448.352C226.71 448.625 227.149 448.995 227.461 449.46C227.777 449.922 227.933 450.44 227.93 451.015C227.933 451.626 227.743 452.136 227.36 452.544C226.98 452.952 226.485 453.212 225.874 453.322V453.407C226.676 453.51 227.287 453.789 227.706 454.243C228.129 454.694 228.338 455.259 228.335 455.937C228.338 456.559 228.159 457.111 227.797 457.594C227.438 458.077 226.943 458.457 226.311 458.734C225.678 459.011 224.954 459.149 224.137 459.149Z" fill="#888888"/>
</g>
<g clip-path="url(#clip1_51_94)">
<g filter="url(#filter1_d_51_94)">
<rect x="231" y="158" width="249" height="251" rx="5" fill="#F6F6F6"/>
<rect x="231.5" y="158.5" width="248" height="250" rx="4.5" stroke="#E1E1E1" stroke-opacity="0.7"/>
</g>
<rect x="243" y="170" width="225" height="173" fill="#00CAB9"/>
<path d="M253.099 362.5H251.778C251.7 362.12 251.564 361.786 251.368 361.499C251.176 361.211 250.942 360.969 250.665 360.774C250.392 360.575 250.088 360.426 249.754 360.327C249.42 360.227 249.072 360.178 248.71 360.178C248.05 360.178 247.451 360.344 246.915 360.678C246.382 361.012 245.958 361.504 245.642 362.154C245.33 362.804 245.173 363.601 245.173 364.545C245.173 365.49 245.33 366.287 245.642 366.937C245.958 367.587 246.382 368.079 246.915 368.413C247.451 368.746 248.05 368.913 248.71 368.913C249.072 368.913 249.42 368.864 249.754 368.764C250.088 368.665 250.392 368.517 250.665 368.322C250.942 368.123 251.176 367.88 251.368 367.592C251.564 367.301 251.7 366.967 251.778 366.591H253.099C253 367.148 252.819 367.647 252.556 368.088C252.293 368.528 251.967 368.903 251.576 369.212C251.185 369.517 250.747 369.75 250.26 369.909C249.777 370.069 249.261 370.149 248.71 370.149C247.78 370.149 246.952 369.922 246.228 369.467C245.504 369.013 244.934 368.366 244.518 367.528C244.103 366.69 243.895 365.696 243.895 364.545C243.895 363.395 244.103 362.401 244.518 361.562C244.934 360.724 245.504 360.078 246.228 359.624C246.952 359.169 247.78 358.942 248.71 358.942C249.261 358.942 249.777 359.022 250.26 359.181C250.747 359.341 251.185 359.576 251.576 359.885C251.967 360.19 252.293 360.563 252.556 361.003C252.819 361.44 253 361.939 253.099 362.5ZM255.873 373.068C255.66 373.068 255.47 373.05 255.303 373.015C255.136 372.983 255.021 372.951 254.957 372.919L255.277 371.811C255.582 371.889 255.852 371.918 256.086 371.896C256.321 371.875 256.528 371.77 256.71 371.582C256.894 371.397 257.063 371.097 257.216 370.682L257.45 370.043L254.424 361.818H255.788L258.047 368.338H258.132L260.39 361.818H261.754L258.281 371.193C258.125 371.616 257.931 371.966 257.7 372.243C257.47 372.523 257.201 372.731 256.896 372.866C256.594 373.001 256.253 373.068 255.873 373.068ZM265.572 370.192C265.053 370.192 264.583 370.094 264.16 369.899C263.738 369.7 263.402 369.414 263.154 369.041C262.905 368.665 262.781 368.21 262.781 367.678C262.781 367.209 262.873 366.829 263.058 366.538C263.242 366.243 263.489 366.012 263.798 365.845C264.107 365.678 264.448 365.554 264.821 365.472C265.197 365.387 265.575 365.32 265.955 365.27C266.453 365.206 266.856 365.158 267.165 365.126C267.477 365.091 267.704 365.032 267.846 364.95C267.992 364.869 268.065 364.727 268.065 364.524V364.482C268.065 363.956 267.921 363.548 267.633 363.256C267.349 362.965 266.918 362.82 266.339 362.82C265.739 362.82 265.268 362.951 264.927 363.214C264.586 363.477 264.347 363.757 264.208 364.055L263.015 363.629C263.228 363.132 263.512 362.745 263.867 362.468C264.226 362.187 264.617 361.992 265.039 361.882C265.465 361.768 265.884 361.712 266.296 361.712C266.559 361.712 266.861 361.744 267.202 361.808C267.546 361.868 267.878 361.994 268.198 362.186C268.521 362.377 268.789 362.667 269.002 363.054C269.215 363.441 269.322 363.96 269.322 364.609V370H268.065V368.892H268.001C267.916 369.07 267.774 369.26 267.575 369.462C267.376 369.664 267.111 369.837 266.781 369.979C266.451 370.121 266.048 370.192 265.572 370.192ZM265.764 369.062C266.261 369.062 266.68 368.965 267.021 368.77C267.365 368.574 267.624 368.322 267.798 368.013C267.976 367.704 268.065 367.379 268.065 367.038V365.888C268.012 365.952 267.894 366.01 267.713 366.064C267.536 366.113 267.33 366.158 267.095 366.197C266.865 366.232 266.639 366.264 266.419 366.293C266.202 366.317 266.026 366.339 265.892 366.357C265.565 366.399 265.259 366.468 264.975 366.564C264.695 366.657 264.468 366.797 264.294 366.985C264.123 367.17 264.038 367.422 264.038 367.741C264.038 368.178 264.199 368.509 264.523 368.732C264.849 368.952 265.263 369.062 265.764 369.062ZM272.873 365.078V370H271.616V361.818H272.831V363.097H272.937C273.129 362.681 273.42 362.347 273.811 362.095C274.202 361.839 274.706 361.712 275.324 361.712C275.878 361.712 276.362 361.825 276.778 362.053C277.193 362.276 277.517 362.617 277.747 363.075C277.978 363.53 278.094 364.105 278.094 364.801V370H276.837V364.886C276.837 364.244 276.67 363.743 276.336 363.384C276.002 363.022 275.544 362.841 274.962 362.841C274.56 362.841 274.202 362.928 273.886 363.102C273.573 363.276 273.326 363.53 273.145 363.864C272.964 364.197 272.873 364.602 272.873 365.078ZM248.039 393L249.829 382.091H251.533L249.744 393H248.039ZM243.154 390.294L243.437 388.589H251.96L251.677 390.294H243.154ZM244.204 393L245.994 382.091H247.698L245.908 393H244.204ZM243.778 386.501L244.065 384.797H252.588L252.3 386.501H243.778ZM257.903 393.24C256.987 393.236 256.198 393.011 255.538 392.563C254.881 392.116 254.375 391.468 254.02 390.619C253.668 389.77 253.494 388.749 253.498 387.556C253.498 386.366 253.673 385.353 254.025 384.515C254.38 383.676 254.886 383.039 255.543 382.602C256.204 382.162 256.99 381.942 257.903 381.942C258.815 381.942 259.6 382.162 260.257 382.602C260.918 383.043 261.426 383.682 261.781 384.52C262.136 385.354 262.312 386.366 262.308 387.556C262.308 388.753 262.13 389.776 261.775 390.624C261.424 391.473 260.919 392.121 260.263 392.569C259.606 393.016 258.819 393.24 257.903 393.24ZM257.903 391.327C258.528 391.327 259.027 391.013 259.4 390.385C259.772 389.756 259.957 388.813 259.954 387.556C259.954 386.729 259.868 386.04 259.698 385.489C259.531 384.939 259.293 384.525 258.984 384.248C258.679 383.971 258.318 383.833 257.903 383.833C257.281 383.833 256.784 384.143 256.411 384.765C256.038 385.386 255.85 386.317 255.847 387.556C255.847 388.394 255.93 389.094 256.097 389.655C256.267 390.212 256.507 390.631 256.816 390.912C257.125 391.189 257.487 391.327 257.903 391.327ZM268.23 393.24C267.314 393.236 266.525 393.011 265.865 392.563C265.208 392.116 264.702 391.468 264.347 390.619C263.995 389.77 263.821 388.749 263.825 387.556C263.825 386.366 264.001 385.353 264.352 384.515C264.707 383.676 265.213 383.039 265.87 382.602C266.531 382.162 267.317 381.942 268.23 381.942C269.143 381.942 269.927 382.162 270.584 382.602C271.245 383.043 271.753 383.682 272.108 384.52C272.463 385.354 272.639 386.366 272.635 387.556C272.635 388.753 272.458 389.776 272.102 390.624C271.751 391.473 271.247 392.121 270.59 392.569C269.933 393.016 269.146 393.24 268.23 393.24ZM268.23 391.327C268.855 391.327 269.354 391.013 269.727 390.385C270.1 389.756 270.284 388.813 270.281 387.556C270.281 386.729 270.195 386.04 270.025 385.489C269.858 384.939 269.62 384.525 269.311 384.248C269.006 383.971 268.645 383.833 268.23 383.833C267.608 383.833 267.111 384.143 266.738 384.765C266.366 385.386 266.177 386.317 266.174 387.556C266.174 388.394 266.257 389.094 266.424 389.655C266.595 390.212 266.834 390.631 267.143 390.912C267.452 391.189 267.814 391.327 268.23 391.327ZM283.969 385.91H281.636C281.593 385.608 281.506 385.34 281.375 385.106C281.244 384.868 281.075 384.665 280.869 384.499C280.663 384.332 280.425 384.204 280.155 384.115C279.889 384.026 279.599 383.982 279.287 383.982C278.722 383.982 278.23 384.122 277.811 384.403C277.392 384.68 277.067 385.085 276.837 385.617C276.606 386.146 276.49 386.789 276.49 387.545C276.49 388.323 276.606 388.977 276.837 389.506C277.071 390.035 277.398 390.434 277.817 390.704C278.236 390.974 278.72 391.109 279.271 391.109C279.58 391.109 279.866 391.068 280.128 390.987C280.395 390.905 280.631 390.786 280.837 390.63C281.043 390.47 281.213 390.276 281.348 390.049C281.487 389.822 281.583 389.562 281.636 389.271L283.969 389.282C283.909 389.783 283.758 390.266 283.516 390.731C283.278 391.192 282.957 391.606 282.552 391.972C282.151 392.334 281.671 392.622 281.114 392.835C280.56 393.044 279.933 393.149 279.234 393.149C278.261 393.149 277.391 392.929 276.623 392.489C275.86 392.048 275.256 391.411 274.812 390.576C274.372 389.742 274.152 388.732 274.152 387.545C274.152 386.356 274.376 385.344 274.823 384.509C275.271 383.675 275.878 383.039 276.645 382.602C277.412 382.162 278.275 381.942 279.234 381.942C279.866 381.942 280.452 382.031 280.991 382.208C281.535 382.386 282.016 382.645 282.435 382.986C282.854 383.323 283.195 383.737 283.458 384.227C283.724 384.717 283.894 385.278 283.969 385.91ZM287.298 393H284.827L288.593 382.091H291.565L295.326 393H292.854L290.121 384.584H290.036L287.298 393ZM287.144 388.712H292.982V390.512H287.144V388.712ZM296.639 393V382.091H301.006C301.809 382.091 302.478 382.21 303.015 382.448C303.551 382.686 303.954 383.016 304.224 383.439C304.494 383.858 304.629 384.341 304.629 384.887C304.629 385.314 304.543 385.688 304.373 386.011C304.203 386.331 303.968 386.594 303.67 386.8C303.375 387.002 303.038 387.146 302.658 387.231V387.338C303.073 387.355 303.462 387.473 303.824 387.689C304.19 387.906 304.487 388.21 304.714 388.6C304.941 388.987 305.055 389.449 305.055 389.985C305.055 390.564 304.911 391.081 304.623 391.535C304.339 391.986 303.918 392.343 303.361 392.606C302.803 392.869 302.116 393 301.299 393H296.639ZM298.945 391.114H300.825C301.468 391.114 301.937 390.992 302.232 390.747C302.526 390.498 302.674 390.168 302.674 389.756C302.674 389.454 302.601 389.188 302.455 388.957C302.31 388.726 302.102 388.545 301.832 388.414C301.566 388.282 301.248 388.217 300.879 388.217H298.945V391.114ZM298.945 386.656H300.655C300.971 386.656 301.252 386.601 301.497 386.491C301.745 386.377 301.94 386.217 302.082 386.011C302.228 385.805 302.301 385.559 302.301 385.271C302.301 384.877 302.161 384.559 301.88 384.317C301.603 384.076 301.209 383.955 300.698 383.955H298.945V386.656ZM310.439 381.942C311 381.942 311.54 382.036 312.058 382.224C312.58 382.412 313.045 382.712 313.454 383.124C313.866 383.536 314.191 384.083 314.428 384.765C314.67 385.443 314.792 386.276 314.796 387.263C314.796 388.19 314.691 389.017 314.482 389.745C314.276 390.47 313.979 391.086 313.592 391.594C313.205 392.102 312.738 392.489 312.191 392.755C311.644 393.018 311.034 393.149 310.359 393.149C309.631 393.149 308.988 393.009 308.431 392.728C307.873 392.444 307.424 392.059 307.083 391.572C306.746 391.082 306.541 390.532 306.47 389.921H308.745C308.834 390.319 309.02 390.628 309.304 390.848C309.588 391.065 309.94 391.173 310.359 391.173C311.069 391.173 311.609 390.864 311.978 390.246C312.347 389.625 312.534 388.774 312.537 387.695H312.463C312.3 388.014 312.079 388.289 311.802 388.52C311.525 388.748 311.208 388.923 310.849 389.048C310.494 389.172 310.116 389.234 309.714 389.234C309.072 389.234 308.498 389.083 307.994 388.781C307.49 388.479 307.092 388.064 306.801 387.535C306.509 387.006 306.364 386.402 306.364 385.724C306.36 384.992 306.529 384.341 306.87 383.769C307.211 383.197 307.687 382.75 308.297 382.426C308.912 382.1 309.626 381.938 310.439 381.942ZM310.455 383.753C310.096 383.753 309.776 383.838 309.496 384.009C309.219 384.179 308.999 384.408 308.835 384.696C308.676 384.983 308.597 385.305 308.601 385.66C308.601 386.018 308.679 386.342 308.835 386.629C308.995 386.913 309.212 387.141 309.485 387.311C309.762 387.478 310.078 387.561 310.433 387.561C310.7 387.561 310.947 387.512 311.174 387.412C311.401 387.313 311.598 387.176 311.765 387.002C311.936 386.825 312.069 386.62 312.165 386.39C312.26 386.159 312.308 385.914 312.308 385.654C312.305 385.31 312.223 384.994 312.063 384.706C311.904 384.419 311.683 384.188 311.403 384.014C311.122 383.84 310.806 383.753 310.455 383.753Z" fill="#888888"/>
</g>
<defs>
<filter id="filter0_d_51_94" x="141" y="219" width="269" height="271" filterUnits="userSpaceOnUse" color-interpolation-filters="sRGB">
<feFlood flood-opacity="0" result="BackgroundImageFix"/>
<feColorMatrix in="SourceAlpha" type="matrix" values="0 0 0 0 0 0 0 0 0 0 0 0 0 0 0 0 0 0 127 0" result="hardAlpha"/>
<feOffset dy="5"/>
<feGaussianBlur stdDeviation="5"/>
<feComposite in2="hardAlpha" operator="out"/>
<feColorMatrix type="matrix" values="0 0 0 0 0 0 0 0 0 0 0 0 0 0 0 0 0 0 0.24 0"/>
<feBlend mode="normal" in2="BackgroundImageFix" result="effect1_dropShadow_51_94"/>
<feBlend mode="normal" in="SourceGraphic" in2="effect1_dropShadow_51_94" result="shape"/>
</filter>
<filter id="filter1_d_51_94" x="221" y="153" width="269" height="271" filterUnits="userSpaceOnUse" color-interpolation-filters="sRGB">
<feFlood flood-opacity="0" result="BackgroundImageFix"/>
<feColorMatrix in="SourceAlpha" type="matrix" values="0 0 0 0 0 0 0 0 0 0 0 0 0 0 0 0 0 0 127 0" result="hardAlpha"/>
<feOffset dy="5"/>
<feGaussianBlur stdDeviation="5"/>
<feComposite in2="hardAlpha" operator="out"/>
<feColorMatrix type="matrix" values="0 0 0 0 0 0 0 0 0 0 0 0 0 0 0 0 0 0 0.24 0"/>
<feBlend mode="normal" in2="BackgroundImageFix" result="effect1_dropShadow_51_94"/>
<feBlend mode="normal" in="SourceGraphic" in2="effect1_dropShadow_51_94" result="shape"/>
</filter>
<clipPath id="clip0_51_94">
<rect width="249" height="251" fill="white" transform="translate(151 224)"/>
</clipPath>
<clipPath id="clip1_51_94">
<rect width="249" height="251" fill="white" transform="translate(231 158)"/>
</clipPath>
</defs>
</svg>
