<svg width="632" height="632" viewBox="0 0 632 632" fill="none" xmlns="http://www.w3.org/2000/svg">
<circle cx="316" cy="316" r="316" fill="#007E73"/>
<path fill-rule="evenodd" clip-rule="evenodd" d="M498.557 157.012C484.637 143.273 462.066 143.273 448.146 157.012L296.48 306.801L346.566 356.887L498.557 206.786C512.477 193.034 512.477 170.752 498.557 157.012ZM261.89 440.444C250.051 451.429 197.15 475.913 166.001 452.175C166.001 452.175 176.841 443.717 185.047 426.741C204.645 374.682 253.492 382.394 253.492 382.394L270.288 398.973C270.456 399.141 282.837 421.026 261.89 440.444ZM279.36 323.717L241.473 361.074C216.171 360.497 181.124 369.46 166.001 419.005C154.439 445.209 124 443.886 124 443.886C187.2 513.992 261.686 474.264 278.686 457.036C293.641 441.9 295.794 423.372 294.194 408.55L329.446 373.803L279.36 323.717Z" fill="white"/>
</svg>
