<svg width="700" height="700" viewBox="0 0 700 700" fill="none" xmlns="http://www.w3.org/2000/svg">
<circle cx="350" cy="350" r="350" fill="#1E1B4B"/>
<path fill-rule="evenodd" clip-rule="evenodd" d="M300 282C300 251.072 322.388 226 350 226C377.616 226 400 251.072 400 282C400 312.93 377.616 338 350 338C322.388 338 300 312.93 300 282Z" fill="#EFEFEF"/>
<path fill-rule="evenodd" clip-rule="evenodd" d="M497.292 309.509L510.447 321.232C515.892 326.083 523.836 325.1 528.193 319.034C532.547 312.971 531.665 304.121 526.22 299.268L389.434 177.38C366.38 156.837 333.621 156.837 310.567 177.38L173.78 299.268C168.336 304.121 167.453 312.971 171.809 319.034C176.164 325.1 184.109 326.083 189.554 321.232L202.709 309.509V502.438H181.667C174.694 502.438 169.042 508.734 169.042 516.5C169.042 524.266 174.694 530.563 181.667 530.563H518.333C525.306 530.563 530.958 524.266 530.958 516.5C530.958 508.734 525.306 502.438 518.333 502.438H497.292V309.509ZM303.709 282.125C303.709 253.648 324.434 230.562 350 230.562C375.566 230.562 396.292 253.648 396.292 282.125C396.292 310.602 375.566 333.688 350 333.688C324.434 333.688 303.709 310.602 303.709 282.125ZM350.832 352.438C362.024 352.438 371.666 352.436 379.389 353.593C387.665 354.832 395.598 357.628 402.032 364.794C408.467 371.962 410.975 380.797 412.088 390.016C413.061 398.079 413.122 408.024 413.125 419.506C413.125 420.273 413.125 421.046 413.125 421.824V502.438H387.875V422.75C387.875 409.094 387.848 400.267 387.064 393.763C386.328 387.663 385.14 385.753 384.178 384.682C383.217 383.611 381.5 382.287 376.024 381.466C370.185 380.592 362.26 380.563 350 380.563C337.74 380.563 329.815 380.592 323.977 381.466C318.501 382.287 316.784 383.611 315.823 384.682C314.862 385.753 313.673 387.663 312.937 393.763C312.152 400.267 312.125 409.094 312.125 422.75V502.438H286.876V421.824C286.875 409.359 286.874 398.617 287.912 390.016C289.025 380.797 291.534 371.962 297.969 364.794C304.403 357.628 312.336 354.832 320.612 353.593C328.334 352.436 337.978 352.438 349.17 352.438H350.832Z" fill="#EFEFEF"/>
</svg>
